<svg xmlns="http://www.w3.org/2000/svg" viewBox="0 0 512 512">
  <defs>
    <linearGradient id="bg" x1="0%" y1="0%" x2="100%" y2="100%">
      <stop offset="0%" style="stop-color:#6366F1"/>
      <stop offset="100%" style="stop-color:#4F46E5"/>
    </linearGradient>
  </defs>
  <!-- Background -->
  <rect width="512" height="512" rx="96" fill="url(#bg)"/>
  <!-- Trophy icon -->
  <g transform="translate(96, 80)" fill="#ffffff">
    <!-- Trophy cup -->
    <path d="M280 40H40v40c0 66.3 53.7 120 120 120h0c66.3 0 120-53.7 120-120V40z" fill="#FCD34D"/>
    <!-- Trophy handles -->
    <path d="M40 60H20c-11 0-20 9-20 20v20c0 33.1 26.9 60 60 60h0V60z" fill="#FCD34D"/>
    <path d="M280 60h20c11 0 20 9 20 20v20c0 33.1-26.9 60-60 60h0V60z" fill="#FCD34D"/>
    <!-- Trophy stem -->
    <rect x="130" y="200" width="60" height="60" fill="#FCD34D"/>
    <!-- Trophy base -->
    <rect x="80" y="260" width="160" height="40" rx="8" fill="#FCD34D"/>
    <!-- Star on trophy -->
    <path d="M160 70l15 30 33 5-24 23 6 33-30-16-30 16 6-33-24-23 33-5z" fill="#ffffff"/>
    <!-- Checkmark -->
    <circle cx="250" cy="280" r="60" fill="#10B981"/>
    <path d="M225 280l20 20 40-40" stroke="#ffffff" stroke-width="12" stroke-linecap="round" stroke-linejoin="round" fill="none"/>
  </g>
</svg>
